<svg width="25" height="28" viewBox="0 0 25 28" fill="none" xmlns="http://www.w3.org/2000/svg">
<path d="M6.85522 25.5531L0.593083 3.61574C0.450004 3.11392 0.448307 2.58232 0.588163 2.07959C0.728018 1.57685 1.00401 1.12251 1.38567 0.766664C1.76735 0.410821 2.23988 0.167293 2.75117 0.0629399C3.26245 -0.0414128 3.79262 -0.00253354 4.28321 0.175295L22.5941 6.8127C23.0157 6.96552 23.3949 7.21622 23.7008 7.5442C24.0066 7.87217 24.2301 8.26804 24.3532 8.69927C24.4761 9.13049 24.495 9.58475 24.4082 10.0247C24.3214 10.4646 24.1314 10.8777 23.8539 11.2299L11.8003 26.5289C11.4771 26.9375 11.0475 27.249 10.5587 27.4292C10.0699 27.6096 9.54098 27.6515 9.02989 27.5507C8.5188 27.4498 8.0454 27.2101 7.66172 26.8577C7.27805 26.5052 6.99902 26.0539 6.85522 25.5531Z" fill="#4070F4"/>
</svg>
