<svg width="5" height="15" viewBox="0 0 5 15" fill="none" xmlns="http://www.w3.org/2000/svg">
<path d="M0.893311 1.96647C0.893311 1.6098 0.999057 1.26116 1.19718 0.964595C1.39539 0.668045 1.67704 0.436905 2.00655 0.300413C2.33606 0.16393 2.6986 0.128218 3.04845 0.197795C3.39821 0.267383 3.71956 0.439136 3.97173 0.691326C4.224 0.943525 4.39568 1.26485 4.46526 1.61466C4.53484 1.96447 4.49917 2.32706 4.36267 2.65657C4.22617 2.98608 3.99502 3.26773 3.69853 3.46588C3.40194 3.66402 3.05327 3.76979 2.69663 3.76979C2.21981 3.76493 1.76402 3.57338 1.42684 3.23624C1.08976 2.89909 0.898126 2.44323 0.893311 1.96647ZM1.19403 4.65128H4.20022V14.6693H1.19403V4.65128Z" fill="#0A2156"/>
</svg>
