<svg width="26" height="26" viewBox="0 0 26 26" fill="none" xmlns="http://www.w3.org/2000/svg">
<path opacity="0.5" d="M12.9621 24.2144L0.975908 4.80319C0.701884 4.35911 0.555838 3.84796 0.553861 3.32614C0.551885 2.80432 0.694065 2.29209 0.96471 1.84594C1.23536 1.3998 1.62397 1.03706 2.08768 0.797733C2.55139 0.558409 3.07218 0.4518 3.59263 0.489667L23.0181 1.90312C23.4652 1.93568 23.8984 2.07392 24.2818 2.30648C24.6652 2.53905 24.9879 2.8593 25.2234 3.24089C25.4589 3.62249 25.6005 4.05452 25.6365 4.5015C25.6724 4.94847 25.6018 5.39761 25.4304 5.81196L17.9863 23.8101C17.7862 24.2911 17.4574 24.7077 17.0359 25.0139C16.6145 25.3202 16.1169 25.5043 15.5976 25.5461C15.0783 25.5879 14.5576 25.4857 14.0926 25.2508C13.6276 25.0158 13.2365 24.6572 12.9621 24.2144Z" fill="#2BD67B"/>
</svg>
