<svg width="41" height="19" viewBox="0 0 41 19" fill="none" xmlns="http://www.w3.org/2000/svg">
<path d="M0.862061 0.0431824H3.86825V14.6693H0.862061V0.0431824ZM5.57035 9.66029C5.56711 8.60994 5.87549 7.58229 6.45658 6.70746C7.03767 5.83253 7.86533 5.14973 8.8347 4.74553C9.80417 4.34131 10.8716 4.23383 11.9022 4.4367C12.9327 4.63959 13.8799 5.14363 14.6237 5.88521C15.3675 6.62668 15.8746 7.57217 16.0807 8.60208C16.2868 9.63199 16.1827 10.6998 15.7816 11.6705C15.3804 12.6411 14.7003 13.471 13.8272 14.0548C12.9541 14.6386 11.9275 14.9504 10.8771 14.9504C10.1796 14.9577 9.48754 14.8261 8.84139 14.5632C8.19534 14.3002 7.60805 13.911 7.11403 13.4186C6.61991 12.926 6.22898 12.34 5.96393 11.6948C5.69889 11.0495 5.56514 10.3578 5.57035 9.66029ZM13.1846 9.66029C13.1728 9.20715 13.0277 8.76767 12.7674 8.39669C12.5072 8.0257 12.1433 7.73963 11.7213 7.57433C11.2992 7.40914 10.8379 7.37189 10.3949 7.46751C9.95188 7.56303 9.54689 7.7872 9.23055 8.1117C8.91421 8.43629 8.70066 8.84688 8.61644 9.29216C8.53232 9.73753 8.58126 10.1977 8.75736 10.6154C8.93337 11.033 9.22868 11.3894 9.60625 11.6401C9.98382 11.8908 10.4269 12.0246 10.8801 12.0248C11.1904 12.0336 11.4993 11.978 11.787 11.8615C12.0749 11.7452 12.3354 11.5703 12.5523 11.3481C12.7692 11.126 12.9377 10.8614 13.0472 10.5709C13.1567 10.2803 13.2048 9.97025 13.1885 9.66029H13.1846ZM28.1703 4.64833V14.1661C28.1703 17.532 25.5454 18.954 22.8812 18.954C21.9435 19.0248 21.0043 18.836 20.1666 18.4083C19.3291 17.9807 18.6253 17.3306 18.1327 16.5296L20.6966 15.0467C20.9036 15.4647 21.2333 15.8097 21.6416 16.0354C22.05 16.261 22.5173 16.3567 22.9815 16.3095C23.2778 16.3499 23.5793 16.3233 23.8639 16.2317C24.1485 16.14 24.4088 15.9857 24.6258 15.7799C24.8427 15.5742 25.0106 15.3224 25.1173 15.043C25.2239 14.7637 25.2664 14.464 25.2418 14.1661V13.2443C24.8898 13.6748 24.4417 14.0168 23.9338 14.2429C23.4257 14.469 22.8717 14.573 22.3162 14.5465C20.9939 14.5053 19.7394 13.9511 18.8186 13.0012C17.8978 12.0513 17.3828 10.7803 17.3828 9.45736C17.3828 8.1343 17.8978 6.86332 18.8186 5.91341C19.7394 4.9635 20.9939 4.4093 22.3162 4.36821C22.8717 4.34163 23.4257 4.44557 23.9338 4.67172C24.4417 4.89785 24.8898 5.23984 25.2418 5.67038V4.64833H28.1703ZM25.2457 9.45686C25.2656 8.97296 25.1402 8.49427 24.8857 8.08221C24.6313 7.67015 24.2594 7.34359 23.8179 7.14458C23.3765 6.94558 22.8855 6.88318 22.4083 6.96543C21.931 7.04769 21.4893 7.27077 21.1398 7.60608C20.7904 7.94139 20.5492 8.3735 20.4474 8.84688C20.3455 9.32036 20.3876 9.8134 20.5682 10.2628C20.7487 10.7121 21.0596 11.0972 21.4608 11.3684C21.862 11.6396 22.3351 11.7847 22.8193 11.785C23.1351 11.8071 23.452 11.763 23.7497 11.6553C24.0474 11.5477 24.3192 11.379 24.5478 11.1599C24.7763 10.941 24.9565 10.6765 25.0767 10.3838C25.1969 10.0909 25.2545 9.77616 25.2457 9.45981V9.45686ZM29.8724 9.65341C29.8692 8.60306 30.1776 7.57542 30.7587 6.70058C31.3398 5.82565 32.1674 5.14285 33.1368 4.73865C34.1063 4.33443 35.1737 4.22695 36.2043 4.42982C37.2348 4.63271 38.1819 5.13675 38.9258 5.87833C39.6696 6.6198 40.1767 7.56529 40.3828 8.5952C40.5889 9.62511 40.4848 10.693 40.0837 11.6636C39.6825 12.6342 39.0023 13.4641 38.1293 14.0479C37.2562 14.6318 36.2296 14.9435 35.1792 14.9435C34.4823 14.9509 33.7908 14.8195 33.1451 14.5569C32.4995 14.2944 31.9125 13.9058 31.4186 13.4141C30.9246 12.9223 30.5335 12.3372 30.2681 11.6926C30.0025 11.0481 29.8681 10.3572 29.8724 9.66029V9.65341ZM37.4867 9.65341C37.4751 9.20008 37.33 8.7602 37.0698 8.38883C36.8095 8.01755 36.4454 7.73128 36.0232 7.56578C35.6009 7.40029 35.1393 7.36305 34.696 7.45867C34.2527 7.55419 33.8474 7.77845 33.531 8.10314C33.2144 8.42794 33.0007 8.83882 32.9166 9.28439C32.8323 9.72997 32.8815 10.1906 33.0577 10.6083C33.234 11.0262 33.5295 11.3827 33.9074 11.6335C34.2853 11.8842 34.7287 12.0179 35.1822 12.0179C35.4916 12.026 35.7993 11.9703 36.0862 11.8541C36.373 11.7378 36.6328 11.5635 36.8492 11.3421C37.0655 11.1208 37.2338 10.8572 37.3435 10.5677C37.4533 10.2783 37.502 9.96936 37.4867 9.66029V9.65341Z" fill="#0A2156"/>
</svg>
