<svg width="16" height="11" viewBox="0 0 16 11" fill="none" xmlns="http://www.w3.org/2000/svg">
<path d="M15.6676 4.5171V10.669H12.6624V4.77851C12.6624 3.7771 12.1809 3.13538 11.2198 3.13538C10.2174 3.13538 9.65723 3.83705 9.65723 5.01928V10.669H6.65104V4.77851C6.65104 3.7771 6.17049 3.13538 5.20839 3.13538C4.20698 3.13538 3.64583 3.83705 3.64583 5.01928V10.669H0.640625V0.651019H3.65074V1.56889C3.96227 1.16017 4.37109 0.836068 4.83986 0.626057C5.30863 0.416145 5.82357 0.32707 6.33558 0.367018C6.84955 0.34187 7.36254 0.450403 7.82246 0.682073C8.28238 0.913704 8.67449 1.26051 8.96047 1.68879C9.29361 1.24076 9.73486 0.884419 10.2429 0.653279C10.751 0.422091 11.3102 0.32361 11.8664 0.367018C14.166 0.370949 15.6676 2.01309 15.6676 4.5171Z" fill="#0A2156"/>
</svg>
