<svg width="12" height="15" viewBox="0 0 12 15" fill="none" xmlns="http://www.w3.org/2000/svg">
<path d="M11.1822 5.66038C11.2172 6.32255 11.1208 6.98511 10.8988 7.60993C10.6767 8.23466 10.3333 8.80946 9.88844 9.30112C9.44346 9.79269 8.90571 10.1915 8.30604 10.4746C7.70637 10.7576 7.05669 10.9194 6.39433 10.9504C5.83721 10.9807 5.28029 10.8868 4.76386 10.6754C4.24754 10.4639 3.78467 10.1403 3.40877 9.72792V14.677H0.403564V0.651372H3.40877V1.59283C3.78477 1.18058 4.24763 0.857157 4.76406 0.645868C5.28039 0.434629 5.83731 0.340817 6.39433 0.371272C7.05669 0.402219 7.70628 0.56382 8.30594 0.84674C8.90561 1.12977 9.44336 1.52846 9.88834 2.02003C10.3333 2.51159 10.6767 3.0862 10.8988 3.71102C11.1208 4.33575 11.2172 4.99821 11.1822 5.66038ZM8.17701 5.66038C8.16521 5.19132 8.01534 4.73621 7.74617 4.35187C7.477 3.96762 7.10042 3.67122 6.66369 3.49993C6.22686 3.32854 5.74926 3.28992 5.29061 3.38869C4.83197 3.48745 4.41253 3.71928 4.08499 4.05518C3.75744 4.39108 3.53623 4.81621 3.44906 5.27721C3.36189 5.73821 3.4127 6.21474 3.595 6.64705C3.7773 7.07935 4.08303 7.44827 4.47396 7.70771C4.86499 7.96716 5.32373 8.10543 5.79288 8.10543C6.11512 8.11997 6.43668 8.06612 6.73661 7.9476C7.03654 7.82898 7.30797 7.64826 7.53312 7.41741C7.75826 7.18647 7.93201 6.91062 8.04306 6.60774C8.15401 6.30496 8.19971 5.98203 8.17701 5.66038Z" fill="#0A2156"/>
</svg>
