<svg width="10" height="11" viewBox="0 0 10 11" fill="none" xmlns="http://www.w3.org/2000/svg">
<path d="M9.45818 7.66222C9.45818 9.96674 7.45438 10.9485 5.29049 10.9485C4.41635 11.0276 3.53847 10.8426 2.77056 10.4173C2.00265 9.99219 1.38008 9.34634 0.983154 8.56339L3.58741 7.08142C3.69335 7.44336 3.92016 7.75794 4.23021 7.97257C4.54017 8.1872 4.9145 8.28891 5.29049 8.26071C6.01182 8.26071 6.3715 8.03959 6.3715 7.63962C6.3715 6.53699 1.44308 7.11877 1.44308 3.65167C1.44308 1.46803 3.28571 0.366386 5.37402 0.366386C6.15736 0.341798 6.93284 0.527662 7.61947 0.90463C8.30739 1.28161 8.88033 1.83587 9.2803 2.50973L6.71644 3.89244C6.60431 3.62946 6.41719 3.4053 6.17849 3.24806C5.93968 3.09073 5.6599 3.00729 5.37402 3.00798C4.85317 3.00798 4.5328 3.20453 4.5328 3.56912C4.52985 4.71893 9.45818 3.95731 9.45818 7.66222Z" fill="#0A2156"/>
</svg>
