<svg width="11" height="11" viewBox="0 0 11 11" fill="none" xmlns="http://www.w3.org/2000/svg">
<path d="M10.4423 0.651184V10.6692H7.43705V9.72577C7.09014 10.1414 6.64889 10.4688 6.15064 10.6814C5.65338 10.8939 5.1119 10.9853 4.57139 10.9483C2.54794 10.9483 0.825195 9.50564 0.825195 6.80017V0.651184H3.8304V6.36187C3.80485 6.60067 3.83237 6.84213 3.91 7.06934C3.98764 7.29655 4.11343 7.5042 4.27951 7.67775C4.4456 7.8513 4.64706 7.98653 4.87014 8.07409C5.09421 8.16175 5.33399 8.19948 5.57378 8.18484C6.67543 8.18484 7.44098 7.5441 7.44098 6.12109V0.651184H10.4423Z" fill="#0A2156"/>
</svg>
